<svg width="16" height="16" viewBox="0 0 16 16" fill="none" xmlns="http://www.w3.org/2000/svg">
<path fill-rule="evenodd" clip-rule="evenodd" d="M3.09068 6L3.5759 0.90519L3.66211 0H4.5714H11.4285H12.3378L12.424 0.905191L12.9093 6H14.5H15.6328L15.4922 7.12403L14.4922 15.124L14.3828 16H13.5H2.49997H1.61719L1.50769 15.124L0.507692 7.12403L0.367188 6H1.49997H3.09068ZM5.09973 6H10.9002L10.5193 2H5.48068L5.09973 6ZM3.38275 14L2.63275 8H13.3672L12.6172 14H3.38275ZM8.49997 9.5V12.5H10.5V9.5H8.49997ZM5.49997 12.5L5.49997 9.5H7.49997L7.49997 12.5H5.49997Z" fill="#242424"/>
</svg>
