<svg width="16" height="16" viewBox="0 0 16 16" fill="none" xmlns="http://www.w3.org/2000/svg">
<g clip-path="url(#clip0_148587_813)">
<path fill-rule="evenodd" clip-rule="evenodd" d="M12 2H4C2.89543 2 2 2.89543 2 4V12C2 13.1046 2.89543 14 4 14H12C13.1046 14 14 13.1046 14 12V4C14 2.89543 13.1046 2 12 2ZM4 0C1.79086 0 0 1.79086 0 4V12C0 14.2091 1.79086 16 4 16H12C14.2091 16 16 14.2091 16 12V4C16 1.79086 14.2091 0 12 0H4ZM6 8C6 9.10457 6.89543 10 8 10C9.10457 10 10 9.10457 10 8C10 6.89543 9.10457 6 8 6C6.89543 6 6 6.89543 6 8ZM8 4C5.79086 4 4 5.79086 4 8C4 10.2091 5.79086 12 8 12C10.2091 12 12 10.2091 12 8C12 5.79086 10.2091 4 8 4ZM12 5C12.5523 5 13 4.55228 13 4C13 3.44772 12.5523 3 12 3C11.4477 3 11 3.44772 11 4C11 4.55228 11.4477 5 12 5Z" fill="white"/>
</g>
<defs>
<clipPath id="clip0_148587_813">
<rect width="16" height="16" fill="white"/>
</clipPath>
</defs>
</svg>
